<svg width="180" height="80" viewBox="0 0 180 80" fill="none" xmlns="http://www.w3.org/2000/svg">
<g filter="url(#filter0_d_2_4)">
<path d="M55.5 11.5633C55.5 11.5633 57.2266 17.7467 57.2266 22.7633C57.2266 27.57 54.0766 31.4667 49.27 31.4667C44.44 31.4667 40.8 27.57 40.8 22.7633L40.87 21.9233C36.1566 27.5233 33.3333 34.78 33.3333 42.6667C33.3333 52.98 41.6866 61.3333 52 61.3333C62.3133 61.3333 70.6666 52.98 70.6666 42.6667C70.6666 30.09 64.6233 18.8667 55.5 11.5633ZM51.3233 54.3333C47.17 54.3333 43.81 51.0667 43.81 47.0067C43.81 43.2267 46.26 40.5667 50.3666 39.7267C54.4966 38.8867 58.7666 36.9033 61.1466 33.7067C62.0566 36.7167 62.5233 39.89 62.5233 43.1333C62.5233 49.3167 57.5066 54.3333 51.3233 54.3333Z" fill="url(#paint0_radial_2_4)"/>
</g>
<g clip-path="url(#clip0_2_4)">
<path d="M74.885 49.885L81.755 43L74.885 36.115L77 34L86 43L77 52L74.885 49.885Z" fill="white"/>
</g>
<rect x="30" y="66" width="130" height="2" fill="#0128F7"/>
<path d="M97.0081 22.8H101.728C102.912 22.8 103.963 23.0347 104.88 23.504C105.797 23.9733 106.507 24.6347 107.008 25.488C107.52 26.3307 107.776 27.3013 107.776 28.4C107.776 29.4987 107.52 30.4747 107.008 31.328C106.507 32.1707 105.797 32.8267 104.88 33.296C103.963 33.7653 102.912 34 101.728 34H97.0081V22.8ZM101.632 32.608C102.539 32.608 103.333 32.432 104.016 32.08C104.709 31.728 105.243 31.2373 105.616 30.608C105.989 29.968 106.176 29.232 106.176 28.4C106.176 27.568 105.989 26.8373 105.616 26.208C105.243 25.568 104.709 25.072 104.016 24.72C103.333 24.368 102.539 24.192 101.632 24.192H98.6081V32.608H101.632ZM113.091 25.44C114.264 25.44 115.16 25.728 115.779 26.304C116.408 26.88 116.723 27.7387 116.723 28.88V34H115.267V32.88C115.011 33.2747 114.643 33.5787 114.163 33.792C113.694 33.9947 113.134 34.096 112.483 34.096C111.534 34.096 110.771 33.8667 110.195 33.408C109.63 32.9493 109.347 32.3467 109.347 31.6C109.347 30.8533 109.619 30.256 110.163 29.808C110.707 29.3493 111.571 29.12 112.755 29.12H115.187V28.816C115.187 28.1547 114.995 27.648 114.611 27.296C114.227 26.944 113.662 26.768 112.915 26.768C112.414 26.768 111.923 26.8533 111.443 27.024C110.963 27.184 110.558 27.4027 110.227 27.68L109.587 26.528C110.024 26.176 110.547 25.9093 111.155 25.728C111.763 25.536 112.408 25.44 113.091 25.44ZM112.739 32.912C113.326 32.912 113.832 32.784 114.259 32.528C114.686 32.2613 114.995 31.888 115.187 31.408V30.224H112.819C111.518 30.224 110.867 30.6613 110.867 31.536C110.867 31.9627 111.032 32.2987 111.363 32.544C111.694 32.7893 112.152 32.912 112.739 32.912ZM124.093 25.44C125.171 25.44 126.024 25.7547 126.653 26.384C127.293 27.0027 127.613 27.9147 127.613 29.12V34H126.077V29.296C126.077 28.4747 125.88 27.856 125.485 27.44C125.091 27.024 124.525 26.816 123.789 26.816C122.957 26.816 122.301 27.0613 121.821 27.552C121.341 28.032 121.101 28.7253 121.101 29.632V34H119.565V25.52H121.037V26.8C121.347 26.3627 121.763 26.0267 122.285 25.792C122.819 25.5573 123.421 25.44 124.093 25.44ZM134.984 25.44C136.061 25.44 136.915 25.7547 137.544 26.384C138.184 27.0027 138.504 27.9147 138.504 29.12V34H136.968V29.296C136.968 28.4747 136.771 27.856 136.376 27.44C135.981 27.024 135.416 26.816 134.68 26.816C133.848 26.816 133.192 27.0613 132.712 27.552C132.232 28.032 131.992 28.7253 131.992 29.632V34H130.456V25.52H131.928V26.8C132.237 26.3627 132.653 26.0267 133.176 25.792C133.709 25.5573 134.312 25.44 134.984 25.44ZM148.694 25.52L144.582 34.848C144.22 35.712 143.793 36.32 143.302 36.672C142.822 37.024 142.241 37.2 141.558 37.2C141.142 37.2 140.737 37.1307 140.342 36.992C139.958 36.864 139.638 36.672 139.382 36.416L140.038 35.264C140.476 35.68 140.982 35.888 141.558 35.888C141.932 35.888 142.241 35.7867 142.486 35.584C142.742 35.392 142.972 35.056 143.174 34.576L143.446 33.984L139.702 25.52H141.302L144.262 32.304L147.19 25.52H148.694Z" fill="white"/>
<path d="M99.4206 44.192V48.096H105.037V49.472H99.4206V54H97.8206V42.8H105.725V44.192H99.4206ZM115.391 45.52V54H113.935V52.72C113.626 53.1573 113.215 53.4987 112.703 53.744C112.202 53.9787 111.653 54.096 111.055 54.096C109.925 54.096 109.034 53.7867 108.383 53.168C107.733 52.5387 107.407 51.616 107.407 50.4V45.52H108.943V50.224C108.943 51.0453 109.141 51.6693 109.535 52.096C109.93 52.512 110.495 52.72 111.231 52.72C112.042 52.72 112.682 52.4747 113.151 51.984C113.621 51.4933 113.855 50.8 113.855 49.904V45.52H115.391ZM118.315 42.128H119.851V54H118.315V42.128ZM122.784 42.128H124.32V54H122.784V42.128Z" fill="url(#paint1_linear_2_4)"/>
<path d="M130.741 54.128C129.898 54.128 129.082 54 128.293 53.744C127.514 53.4773 126.901 53.136 126.453 52.72L127.045 51.472C127.472 51.856 128.016 52.1707 128.677 52.416C129.349 52.6507 130.037 52.768 130.741 52.768C131.669 52.768 132.362 52.6133 132.821 52.304C133.28 51.984 133.509 51.5627 133.509 51.04C133.509 50.656 133.381 50.3467 133.125 50.112C132.88 49.8667 132.57 49.68 132.197 49.552C131.834 49.424 131.317 49.28 130.645 49.12C129.802 48.9173 129.12 48.7147 128.597 48.512C128.085 48.3093 127.642 48 127.269 47.584C126.906 47.1573 126.725 46.5867 126.725 45.872C126.725 45.2747 126.88 44.736 127.189 44.256C127.509 43.776 127.989 43.392 128.629 43.104C129.269 42.816 130.064 42.672 131.013 42.672C131.674 42.672 132.325 42.7573 132.965 42.928C133.605 43.0987 134.154 43.344 134.613 43.664L134.085 44.944C133.616 44.6453 133.114 44.4213 132.581 44.272C132.048 44.112 131.525 44.032 131.013 44.032C130.106 44.032 129.424 44.1973 128.965 44.528C128.517 44.8587 128.293 45.2853 128.293 45.808C128.293 46.192 128.421 46.5067 128.677 46.752C128.933 46.9867 129.248 47.1733 129.621 47.312C130.005 47.44 130.522 47.5787 131.173 47.728C132.016 47.9307 132.693 48.1333 133.205 48.336C133.717 48.5387 134.154 48.848 134.517 49.264C134.89 49.68 135.077 50.24 135.077 50.944C135.077 51.5307 134.917 52.0693 134.597 52.56C134.277 53.04 133.792 53.424 133.141 53.712C132.49 53.9893 131.69 54.128 130.741 54.128ZM141.958 53.504C141.734 53.696 141.457 53.8453 141.126 53.952C140.796 54.048 140.454 54.096 140.102 54.096C139.249 54.096 138.588 53.8667 138.118 53.408C137.649 52.9493 137.414 52.2933 137.414 51.44V46.784H135.974V45.52H137.414V43.664H138.95V45.52H141.382V46.784H138.95V51.376C138.95 51.8347 139.062 52.1867 139.286 52.432C139.521 52.6773 139.852 52.8 140.278 52.8C140.748 52.8 141.148 52.6667 141.478 52.4L141.958 53.504ZM146.903 45.44C148.077 45.44 148.973 45.728 149.591 46.304C150.221 46.88 150.535 47.7387 150.535 48.88V54H149.079V52.88C148.823 53.2747 148.455 53.5787 147.975 53.792C147.506 53.9947 146.946 54.096 146.295 54.096C145.346 54.096 144.583 53.8667 144.007 53.408C143.442 52.9493 143.159 52.3467 143.159 51.6C143.159 50.8533 143.431 50.256 143.975 49.808C144.519 49.3493 145.383 49.12 146.567 49.12H148.999V48.816C148.999 48.1547 148.807 47.648 148.423 47.296C148.039 46.944 147.474 46.768 146.727 46.768C146.226 46.768 145.735 46.8533 145.255 47.024C144.775 47.184 144.37 47.4027 144.039 47.68L143.399 46.528C143.837 46.176 144.359 45.9093 144.967 45.728C145.575 45.536 146.221 45.44 146.903 45.44ZM146.551 52.912C147.138 52.912 147.645 52.784 148.071 52.528C148.498 52.2613 148.807 51.888 148.999 51.408V50.224H146.631C145.33 50.224 144.679 50.6613 144.679 51.536C144.679 51.9627 144.845 52.2987 145.175 52.544C145.506 52.7893 145.965 52.912 146.551 52.912ZM157.121 54.096C156.257 54.096 155.483 53.9093 154.801 53.536C154.129 53.1627 153.601 52.6507 153.217 52C152.833 51.3387 152.641 50.592 152.641 49.76C152.641 48.928 152.833 48.1867 153.217 47.536C153.601 46.8747 154.129 46.3627 154.801 46C155.483 45.6267 156.257 45.44 157.121 45.44C157.889 45.44 158.571 45.5947 159.169 45.904C159.777 46.2133 160.246 46.6613 160.577 47.248L159.409 48C159.142 47.5947 158.811 47.2907 158.417 47.088C158.022 46.8853 157.585 46.784 157.105 46.784C156.55 46.784 156.049 46.9067 155.601 47.152C155.163 47.3973 154.817 47.7493 154.561 48.208C154.315 48.656 154.193 49.1733 154.193 49.76C154.193 50.3573 154.315 50.8853 154.561 51.344C154.817 51.792 155.163 52.1387 155.601 52.384C156.049 52.6293 156.55 52.752 157.105 52.752C157.585 52.752 158.022 52.6507 158.417 52.448C158.811 52.2453 159.142 51.9413 159.409 51.536L160.577 52.272C160.246 52.8587 159.777 53.312 159.169 53.632C158.571 53.9413 157.889 54.096 157.121 54.096ZM165.752 50.048L163.992 51.68V54H162.456V42.128H163.992V49.744L168.616 45.52H170.472L166.904 49.024L170.824 54H168.936L165.752 50.048Z" fill="white"/>
<path d="M29.115 49.885L22.245 43L29.115 36.115L27 34L18 43L27 52L29.115 49.885Z" fill="white"/>
<defs>
<filter id="filter0_d_2_4" x="20" y="10" width="64" height="64" filterUnits="userSpaceOnUse" color-interpolation-filters="sRGB">
<feFlood flood-opacity="0" result="BackgroundImageFix"/>
<feColorMatrix in="SourceAlpha" type="matrix" values="0 0 0 0 0 0 0 0 0 0 0 0 0 0 0 0 0 0 127 0" result="hardAlpha"/>
<feOffset dy="4"/>
<feGaussianBlur stdDeviation="2"/>
<feComposite in2="hardAlpha" operator="out"/>
<feColorMatrix type="matrix" values="0 0 0 0 0 0 0 0 0 0 0 0 0 0 0 0 0 0 0.25 0"/>
<feBlend mode="normal" in2="BackgroundImageFix" result="effect1_dropShadow_2_4"/>
<feBlend mode="normal" in="SourceGraphic" in2="effect1_dropShadow_2_4" result="shape"/>
</filter>
<radialGradient id="paint0_radial_2_4" cx="0" cy="0" r="1" gradientUnits="userSpaceOnUse" gradientTransform="translate(52 11.75) rotate(74.1343) scale(172.834 129.646)">
<stop stop-color="#D73D27"/>
<stop offset="0.21875" stop-color="#FF9B25"/>
<stop offset="0.34375" stop-color="#D73D27" stop-opacity="0.65625"/>
<stop offset="1" stop-color="#D73D27" stop-opacity="0"/>
</radialGradient>
<linearGradient id="paint1_linear_2_4" x1="133.5" y1="38" x2="88.0673" y2="38" gradientUnits="userSpaceOnUse">
<stop offset="0.0260417" stop-color="#00C2FF"/>
<stop offset="0.953125" stop-color="#0075FF"/>
</linearGradient>
<clipPath id="clip0_2_4">
<rect width="36" height="36" fill="white" transform="translate(62 25)"/>
</clipPath>
</defs>
</svg>
